<svg xmlns="http://www.w3.org/2000/svg" version="1.1" xmlns:xlink="http://www.w3.org/1999/xlink" xmlns:svgjs="http://svgjs.com/svgjs" width="660" height="400" preserveAspectRatio="none" viewBox="0 0 660 400"><g mask="url(&quot;#SvgjsMask1011&quot;)" fill="none"><rect width="660" height="400" x="0" y="0" fill="rgba(206, 212, 218, 1)"></rect><path d="M199.63 410.73C277.87 397.11 315.84 204.47 440.32 203.4 564.81 202.33 617.62 282.36 681.02 283.4" stroke="rgba(51,121,194,0.58)" stroke-width="2"></path><path d="M19.6 435.28C107.32 432.82 167.63 309.76 345 303.69 522.38 297.62 580.7 155.38 670.41 151.69" stroke="rgba(51,121,194,0.58)" stroke-width="2"></path><path d="M157.61 478.48C247.9 454.14 279.09 205.92 411.99 204.24 544.89 202.56 596.12 321.28 666.37 324.24" stroke="rgba(51,121,194,0.58)" stroke-width="2"></path><path d="M146.3 474.88C226.23 474.74 294.75 430.11 462.4 426.83 630.05 423.55 688.24 256.63 778.5 250.83" stroke="rgba(51,121,194,0.58)" stroke-width="2"></path><path d="M330.33 454.44C408.15 434.18 435.86 222.13 551.28 220.67 666.7 219.21 711.64 318.38 772.23 320.67" stroke="rgba(51,121,194,0.58)" stroke-width="2"></path></g><defs><mask id="SvgjsMask1011"><rect width="660" height="400" fill="#ffffff"></rect></mask></defs></svg>